<svg xmlns="http://www.w3.org/2000/svg" xml:space="preserve" viewBox="0 0 880 320"><style>.st0{fill:#afafaf}.st2{fill:#fff}</style><switch><g><g id="CC_base"><path d="M25 314a19 19 0 0 1-19-19V25A19 19 0 0 1 25 6h830a19 19 0 0 1 19 19v270a19 19 0 0 1-19 19H25z" class="st0"/><path fill="#231f20" d="M855 12a13 13 0 0 1 13 13v270a13 13 0 0 1-13 13H25a13 13 0 0 1-13-13V25a13 13 0 0 1 13-13h830m0-12H25A25 25 0 0 0 0 25v270a25 25 0 0 0 25 25h830a25 25 0 0 0 25-25V25a25 25 0 0 0-25-25z"/><path d="M10 210h860v100H10z"/><path d="M150 298c-76 0-138-62-138-138S74 22 150 22s138 62 138 138-62 138-138 138zm0-240a102.1 102.1 0 0 0 0 204 102.1 102.1 0 0 0 0-204z"/><path d="M150 31c71.1 0 129 57.9 129 129s-57.9 129-129 129S21 231.1 21 160 78.9 31 150 31m0 240a111.1 111.1 0 0 0 0-222 111.1 111.1 0 0 0 0 222m0-258C69 13 3 79 3 160s66 147 147 147 147-66 147-147S231 13 150 13zm0 240a93.1 93.1 0 0 1 0-186 93.1 93.1 0 0 1 0 186z" class="st0"/><circle cx="150" cy="160" r="112.5" class="st2"/><path d="M855 12a13 13 0 0 1 13 13v270a13 13 0 0 1-13 13H25a13 13 0 0 1-13-13V25a13 13 0 0 1 13-13h830m0-12H25A25 25 0 0 0 0 25v270a25 25 0 0 0 25 25h830a25 25 0 0 0 25-25V25a25 25 0 0 0-25-25z"/><path id="a" d="M148.3 140.5c-8.2-15-22.3-21-38.6-21-23.8 0-42.7 16.8-42.7 45.2 0 29 17.8 45.3 43.5 45.3 16.5 0 30.6-9 38.3-22.8l-18.1-9.2c-4 9.7-10.2 12.6-18 12.6-13.4 0-19.5-11.1-19.5-25.9 0-14.7 5.2-25.8 19.6-25.8 3.8 0 11.6 2 16.1 11.8l19.4-10.2z"/><path id="a_00000105403175664035720880000012544273467527508671_" d="M232.5 140.5c-8.2-15-22.3-21-38.6-21-23.8 0-42.7 16.8-42.7 45.2 0 29 17.8 45.3 43.5 45.3 16.5 0 30.5-9 38.3-22.8l-18.1-9.2c-4 9.7-10.2 12.6-18 12.6-13.4 0-19.5-11.1-19.5-25.9 0-14.7 5.2-25.8 19.5-25.8 4 0 11.7 2 16.2 11.8l19.4-10.2z"/></g><g id="BY"><path d="M529.2 241.6H551c12 0 16.6 6.2 16.6 12.7 0 5.6-3 9.2-6.4 10.7 3.4 1.3 7.8 4.8 7.8 11.3 0 8.5-6.7 14.9-17.3 14.9h-22.4v-49.6zm20.5 19.5c5 0 7.2-2.3 7.2-5.7 0-3.7-2.8-5.6-7-5.6h-10.1v11.3h9.9zm-10 21.8h9.7c5.8 0 8.5-2.4 8.5-7 0-4-2.6-6.5-8.5-6.5h-9.7V283zm48.5 8.3v-17.5c0-.6 0-1.1-.4-1.6l-17.1-30.5h12.1a471 471 0 0 1 11.3 22.8c2.2-5.2 7.6-15.7 11.4-22.8h11.2l-17.3 30.3c-.2.4-.4.6-.4 1.6v17.7h-10.8z" class="st2"/><circle cx="570.4" cy="109.4" r="62.5" class="st2"/><path d="M590.2 91.4V122h-8.5v36.5h-23.3V122h-8.6V91.4a4.8 4.8 0 0 1 4.8-4.9h30.8c1.3 0 2.4.5 3.4 1.5s1.4 2 1.4 3.4zM559.5 72c0-7 3.5-10.6 10.5-10.6S580.4 65 580.4 72s-3.5 10.4-10.4 10.4c-7 0-10.5-3.4-10.5-10.4zM570 35a74 74 0 0 1 75.1 75c0 44.5-35.8 75-75.1 75a75.2 75.2 0 0 1-74.9-75c0-40.2 31.7-75 74.9-75zm.2 13.5a61.7 61.7 0 0 0-61.6 61.5 61.9 61.9 0 0 0 61.6 61.3 61.1 61.1 0 0 0 61.3-61.3 61 61 0 0 0-61.3-61.5z"/></g></g></switch></svg>